<svg id="Capa_1" enable-background="new 0 0 512 512" height="512" viewBox="0 0 512 512" width="512" xmlns="http://www.w3.org/2000/svg"><g><g><circle cx="256" cy="256" fill="#ff9eb1" r="246"/><circle cx="256" cy="256" fill="#fff" r="206"/></g><g><path d="m302.818 4.273c-5.428-1.002-10.647 2.584-11.65 8.016-1.004 5.431 2.584 10.647 8.016 11.651 111.725 20.654 192.816 118.249 192.816 232.06 0 130.131-105.869 236-236 236s-236-105.869-236-236c0-113.811 81.091-211.406 192.817-232.06 5.431-1.004 9.02-6.221 8.016-11.651-1.004-5.431-6.222-9.015-11.651-8.016-121.208 22.407-209.182 128.273-209.182 251.727 0 68.38 26.628 132.667 74.981 181.019 48.352 48.352 112.639 74.981 181.019 74.981s132.667-26.629 181.02-74.981c48.351-48.352 74.98-112.639 74.98-181.019 0-123.454-87.974-229.32-209.182-251.727z"/><circle cx="256" cy="10" r="10"/><path d="m40 256c0 119.103 96.898 216 216 216s216-96.897 216-216-96.897-216-216-216-216 96.898-216 216zm412 0c0 108.075-87.925 196-196 196s-196-87.925-196-196 87.925-196 196-196 196 87.925 196 196z"/><path d="m247.785 180.471h-28.012c-5.523 0-10 4.477-10 10s4.477 10 10 10h18.012v121.058c0 5.523 4.477 10 10 10s10-4.477 10-10v-131.058c-.001-5.523-4.477-10-10-10z"/><path d="m285.915 283.63c0 26.412 21.487 47.899 47.9 47.899 26.411 0 47.898-21.487 47.898-47.899 0-16.357-8.247-30.819-20.796-39.464 6.511-6.768 10.527-15.953 10.527-26.064 0-20.749-16.881-37.63-37.63-37.63-20.75 0-37.631 16.881-37.631 37.63 0 10.111 4.016 19.296 10.527 26.064-12.548 8.645-20.795 23.107-20.795 39.464zm30.269-65.529c0-9.721 7.909-17.63 17.631-17.63 9.721 0 17.63 7.909 17.63 17.63s-7.909 17.63-17.63 17.63c-9.722 0-17.631-7.909-17.631-17.63zm17.631 37.63c15.383 0 27.898 12.515 27.898 27.899s-12.516 27.899-27.898 27.899c-15.384 0-27.9-12.516-27.9-27.899s12.516-27.899 27.9-27.899z"/><path d="m188.525 246h-24.119v-24.119c0-5.523-4.477-10-10-10s-10 4.477-10 10v24.119h-24.119c-5.523 0-10 4.477-10 10s4.477 10 10 10h24.119v24.119c0 5.523 4.477 10 10 10s10-4.477 10-10v-24.119h24.119c5.523 0 10-4.477 10-10s-4.477-10-10-10z"/></g></g></svg>